<svg xmlns="http://www.w3.org/2000/svg" viewBox="0 0 512 512">
  <defs>
    <linearGradient id="bg" x1="0%" y1="0%" x2="100%" y2="100%">
      <stop offset="0%" style="stop-color:#1e3a5f"/>
      <stop offset="100%" style="stop-color:#0f1f3a"/>
    </linearGradient>
    <linearGradient id="gold" x1="0%" y1="0%" x2="100%" y2="100%">
      <stop offset="0%" style="stop-color:#f0c040"/>
      <stop offset="100%" style="stop-color:#d4a020"/>
    </linearGradient>
  </defs>
  <!-- Background -->
  <rect width="512" height="512" rx="80" fill="url(#bg)"/>
  <!-- Graduation cap -->
  <path d="M256 120 L400 200 L256 280 L112 200 Z" fill="url(#gold)"/>
  <path d="M256 280 L400 200 L400 240 L256 320 L112 240 L112 200 Z" fill="url(#gold)" opacity="0.8"/>
  <!-- Tassel -->
  <line x1="400" y1="200" x2="400" y2="320" stroke="#f0c040" stroke-width="6"/>
  <circle cx="400" cy="330" r="12" fill="#f0c040"/>
  <!-- Book -->
  <rect x="180" y="320" width="152" height="100" rx="8" fill="white" opacity="0.9"/>
  <line x1="256" y1="320" x2="256" y2="420" stroke="#1e3a5f" stroke-width="2"/>
  <line x1="200" y1="350" x2="245" y2="350" stroke="#1e3a5f" stroke-width="3" opacity="0.4"/>
  <line x1="200" y1="370" x2="240" y2="370" stroke="#1e3a5f" stroke-width="3" opacity="0.4"/>
  <line x1="200" y1="390" x2="242" y2="390" stroke="#1e3a5f" stroke-width="3" opacity="0.4"/>
  <line x1="267" y1="350" x2="312" y2="350" stroke="#1e3a5f" stroke-width="3" opacity="0.4"/>
  <line x1="267" y1="370" x2="307" y2="370" stroke="#1e3a5f" stroke-width="3" opacity="0.4"/>
  <line x1="267" y1="390" x2="309" y2="390" stroke="#1e3a5f" stroke-width="3" opacity="0.4"/>
</svg>