<svg xmlns="http://www.w3.org/2000/svg" viewBox="0 0 512 512">
  <defs>
    <linearGradient id="grad1" x1="0%" y1="0%" x2="100%" y2="100%">
      <stop offset="0%" style="stop-color:#1e3a5f;stop-opacity:1" />
      <stop offset="100%" style="stop-color:#4a90d9;stop-opacity:1" />
    </linearGradient>
    <linearGradient id="grad2" x1="0%" y1="0%" x2="100%" y2="100%">
      <stop offset="0%" style="stop-color:#f59e0b;stop-opacity:1" />
      <stop offset="100%" style="stop-color:#fbbf24;stop-opacity:1" />
    </linearGradient>
  </defs>
  <!-- Background circle -->
  <circle cx="256" cy="256" r="240" fill="url(#grad1)"/>
  <!-- Brain/Mind icon -->
  <path d="M256 120c-75 0-136 61-136 136 0 50 27 94 68 118v48c0 22 18 40 40 40h16c22 0 40-18 40-40v-48c41-24 68-68 68-118 0-75-61-136-136-136z" fill="#fff" opacity="0.95"/>
  <!-- Book pages -->
  <path d="M200 180h112v8H200z" fill="url(#grad2)"/>
  <path d="M200 200h112v8H200z" fill="url(#grad2)"/>
  <path d="M200 220h80v8H200z" fill="url(#grad2)"/>
  <!-- Spark/idea -->
  <polygon points="256,100 270,130 300,130 275,150 285,180 256,160 227,180 237,150 212,130 242,130" fill="#fbbf24"/>
  <!-- Text: MM -->
  <text x="256" y="380" font-family="Arial Black" font-size="80" font-weight="bold" fill="#fff" text-anchor="middle">MM</text>
</svg>